<svg width="50" height="50" viewBox="0 0 50 50" fill="none" xmlns="http://www.w3.org/2000/svg">
<g clip-path="url(#clip0)">
<path d="M39.525 1.78984L25 16.3156C20.1586 11.4758 15.3156 6.63125 10.4734 1.78984C4.87188 -3.81172 -3.81094 4.87422 1.78594 10.4773C6.62891 15.3156 11.4734 20.1609 16.3109 25.0023C11.4712 29.846 6.62956 34.6876 1.78594 39.5273C-3.81094 45.1273 4.87266 53.8109 10.4734 48.2148C15.3148 43.3719 20.1578 38.5281 24.9992 33.6883L39.5242 48.2148C45.1258 53.8148 53.8109 45.1281 48.2117 39.5273C43.3688 34.6844 38.5273 29.843 33.6828 25.0008C38.5266 20.1578 43.368 15.3148 48.2117 10.4727C53.8117 4.87422 45.1266 -3.81172 39.5242 1.79297" fill="white"/>
</g>
<defs>
<clipPath id="clip0">
<rect width="50" height="50" fill="white"/>
</clipPath>
</defs>
</svg>
