<?xml version="1.0" encoding="utf-8"?>
<!-- Generator: Adobe Illustrator 25.0.1, SVG Export Plug-In . SVG Version: 6.00 Build 0)  -->
<svg version="1.1" id="Calque_1" xmlns="http://www.w3.org/2000/svg" xmlns:xlink="http://www.w3.org/1999/xlink" x="0px" y="0px"
	 viewBox="0 0 276 353" style="enable-background:new 0 0 276 353;" xml:space="preserve">
<style type="text/css">
	.st0{fill-rule:evenodd;clip-rule:evenodd;fill:#FFFFFF;}
</style>
<desc>Created with Sketch.</desc>
<g id="Page-1">
	<g id="Artboard-Copy" transform="translate(-92.000000, -46.000000)">
		<g id="logo_Amon_Full" transform="translate(92.000000, 46.000000)">
			<path id="AMON" class="st0" d="M38,306.9H17.3l-5.1,12.2H0l28.2-65h0.7l28.2,65H42.8L38,306.9z M33.9,296.5l-6-15.2l-6.3,15.2
				H33.9z M130.6,254v65.1h-12.3v-29.8l-20.4,29h-0.2l-19.6-27.1v28H66.2V254h0.1L98,299l32.5-45H130.6z M147.3,272
				c2.9-4.9,6.7-8.9,11.6-11.8c4.9-2.9,10.2-4.4,15.9-4.4s11,1.5,15.9,4.4c4.9,2.9,8.8,6.8,11.7,11.8s4.4,10.2,4.4,15.9
				c0,5.8-1.5,11.1-4.4,16c-2.9,4.9-6.8,8.7-11.7,11.6c-4.9,2.9-10.2,4.3-15.9,4.3c-5.8,0-11.1-1.4-16-4.3
				c-4.9-2.9-8.7-6.7-11.6-11.6c-2.9-4.9-4.3-10.2-4.3-16C143,282.2,144.4,277,147.3,272z M158.3,297.9c1.7,3.1,4.1,5.5,7.1,7.3
				c3,1.8,6.3,2.7,9.9,2.7c3.5,0,6.7-0.9,9.6-2.7s5.2-4.2,6.8-7.2c1.6-3,2.5-6.4,2.5-10.1c0-3.7-0.8-7.1-2.6-10.2
				c-1.7-3.1-4-5.5-6.9-7.3c-2.9-1.8-6.2-2.7-9.7-2.7c-3.6,0-6.8,0.9-9.7,2.7c-2.9,1.8-5.2,4.2-6.9,7.3c-1.7,3.1-2.6,6.5-2.6,10.2
				C155.7,291.5,156.6,294.9,158.3,297.9z M275.6,256.5v65.1h-0.3l-43.8-39.5l0.3,37h-12.5v-65h0.5l43.7,40.1l-0.3-37.7H275.6z"/>
			<path id="amon2" class="st0" d="M101.2,222.4V151l-34.7,29l34.7-33.3l38.5,37.4V119l-51.7,8.6l-35.1,32.3l39.8-40.4
				C84.7,109.5,80,96.8,80,83c0-32.6,26.4-59,59-59s59,26.4,59,59c0,13-4,25-10.8,34.8l49,49.9c6.9-14.3,10.8-30.3,10.8-47.2
				C247,60.6,198.4,12,138.5,12S30,60.6,30,120.5C30,167.3,59.6,207.2,101.2,222.4z M138,240c-66.3,0-120-53.7-120-120S71.7,0,138,0
				s120,53.7,120,120S204.3,240,138,240z M140,78.3l-49.8,46.6l49-9.1l50.4,9.1L139.9,113L140,78.3z M142.4,187.2l32.2,30.3
				l-2.4-57.3l34.5,31.4l-34.5-34.8L142.4,187.2z"/>
		</g>
	</g>
</g>
</svg>
