<?xml version="1.0" encoding="utf-8"?>
<!-- Generator: Adobe Illustrator 25.0.1, SVG Export Plug-In . SVG Version: 6.00 Build 0)  -->
<svg version="1.1" id="Calque_1" xmlns="http://www.w3.org/2000/svg" xmlns:xlink="http://www.w3.org/1999/xlink" x="0px" y="0px"
	 viewBox="0 0 276 353" style="enable-background:new 0 0 276 353;" xml:space="preserve">
<style type="text/css">
	.st0{fill-rule:evenodd;clip-rule:evenodd;fill:#FFFFFF;}
</style>
<desc>Created with Sketch.</desc>
<g id="Page-1">
	<g id="Artboard-Copy" transform="translate(-92.000000, -46.000000)">
		<g id="logo_Amon_Full" transform="translate(92.000000, 46.000000)">
			<path id="AMON" class="st0" d="M38,306.9H17.3l-5.1,12.2H0l28.2-65h0.7l28.2,65H42.8L38,306.9z M33.9,296.5l-6-15.2l-6.3,15.2
				H33.9z M130.6,254v65.1h-12.3v-29.8l-20.4,29h-0.2l-19.6-27.1v28H66.2V254h0.1L98,299l32.5-45H130.6z M147.3,272
				c2.9-4.9,6.7-8.9,11.6-11.8c4.9-2.9,10.2-4.4,15.9-4.4s11,1.5,15.9,4.4c4.9,2.9,8.8,6.8,11.7,11.8s4.4,10.2,4.4,15.9
				c0,5.8-1.5,11.1-4.4,16c-2.9,4.9-6.8,8.7-11.7,11.6c-4.9,2.9-10.2,4.3-15.9,4.3c-5.8,0-11.1-1.4-16-4.3
				c-4.9-2.9-8.7-6.7-11.6-11.6c-2.9-4.9-4.3-10.2-4.3-16C143,282.2,144.4,277,147.3,272z M158.3,297.9c1.7,3.1,4.1,5.5,7.1,7.3
				c3,1.8,6.3,2.7,9.9,2.7c3.5,0,6.7-0.9,9.6-2.7s5.2-4.2,6.8-7.2c1.6-3,2.5-6.4,2.5-10.1c0-3.7-0.8-7.1-2.6-10.2
				c-1.7-3.1-4-5.5-6.9-7.3c-2.9-1.8-6.2-2.7-9.7-2.7c-3.6,0-6.8,0.9-9.7,2.7c-2.9,1.8-5.2,4.2-6.9,7.3c-1.7,3.1-2.6,6.5-2.6,10.2
				C155.7,291.5,156.6,294.9,158.3,297.9z M275.6,256.5v65.1h-0.3l-43.8-39.5l0.3,37h-12.5v-65h0.5l43.7,40.1l-0.3-37.7H275.6z"/>
			<path id="PASSAGE-SECRET" class="st0" d="M10.7,330.7c1.3,1.1,2,2.8,2,5c0,1.2-0.3,2.4-0.8,3.4c-0.5,1.1-1.4,1.9-2.5,2.6
				c-1.1,0.7-2.5,1-4.2,1H1.6v9.9H0V329h5.4C7.7,329,9.4,329.6,10.7,330.7z M8.7,340.3c0.9-0.6,1.5-1.3,1.9-2.1
				c0.4-0.8,0.5-1.7,0.5-2.5c0-1.5-0.5-2.8-1.5-3.7s-2.3-1.4-4.1-1.4h-4v10.5h3.6C6.7,341.1,7.8,340.8,8.7,340.3z M29.3,344.8H18.9
				l-3.1,7.8h-1.6l9.9-24.5h0.1l9.9,24.5h-1.8L29.3,344.8z M28.7,343.2l-4.5-11.6l-4.6,11.6H28.7z M48.7,330.7
				c-1-0.3-1.9-0.4-2.8-0.4c-1.5,0-2.8,0.4-3.7,1.1c-0.9,0.8-1.4,1.7-1.4,2.9c0,0.8,0.2,1.6,0.7,2.1c0.5,0.6,1.1,1.1,1.9,1.5
				c0.8,0.4,1.8,0.8,3,1.3c1.3,0.5,2.4,1,3.3,1.5c0.9,0.5,1.6,1.2,2.2,2.1c0.6,0.9,0.9,2,0.9,3.4c0,1.3-0.3,2.5-0.9,3.5
				c-0.6,1-1.5,1.8-2.6,2.3c-1.1,0.6-2.4,0.8-3.8,0.8c-2.5,0-5-0.8-7.4-2.4l0.8-1.3c0.8,0.6,1.8,1.2,3,1.6c1.2,0.5,2.4,0.7,3.5,0.7
				c1,0,1.9-0.2,2.8-0.6c0.9-0.4,1.6-1,2.2-1.8c0.6-0.8,0.8-1.7,0.8-2.8c0-1-0.3-1.9-0.8-2.6c-0.5-0.7-1.2-1.3-2-1.7
				c-0.8-0.4-1.8-0.9-3-1.3c-1.3-0.5-2.4-1-3.3-1.4c-0.9-0.5-1.6-1.1-2.2-1.8c-0.6-0.8-0.9-1.7-0.9-2.8c0-1.1,0.3-2.1,0.8-2.9
				s1.3-1.5,2.4-2s2.1-0.7,3.4-0.7c1.1,0,2.2,0.1,3.3,0.4s2.1,0.7,3,1.1l-0.6,1.3C50.6,331.3,49.7,331,48.7,330.7z M68,330.7
				c-1-0.3-1.9-0.4-2.8-0.4c-1.5,0-2.8,0.4-3.7,1.1c-0.9,0.8-1.4,1.7-1.4,2.9c0,0.8,0.2,1.6,0.7,2.1c0.5,0.6,1.1,1.1,1.9,1.5
				c0.8,0.4,1.8,0.8,3,1.3c1.3,0.5,2.4,1,3.3,1.5c0.9,0.5,1.6,1.2,2.2,2.1c0.6,0.9,0.9,2,0.9,3.4c0,1.3-0.3,2.5-0.9,3.5
				c-0.6,1-1.5,1.8-2.6,2.3c-1.1,0.6-2.4,0.8-3.8,0.8c-2.5,0-5-0.8-7.4-2.4l0.8-1.3c0.8,0.6,1.8,1.2,3,1.6c1.2,0.5,2.4,0.7,3.5,0.7
				c1,0,1.9-0.2,2.8-0.6c0.9-0.4,1.6-1,2.2-1.8c0.6-0.8,0.8-1.7,0.8-2.8c0-1-0.3-1.9-0.8-2.6s-1.2-1.3-2-1.7s-1.8-0.9-3-1.3
				c-1.3-0.5-2.4-1-3.3-1.4c-0.9-0.5-1.6-1.1-2.2-1.8c-0.6-0.8-0.9-1.7-0.9-2.8c0-1.1,0.3-2.1,0.8-2.9s1.3-1.5,2.4-2
				s2.1-0.7,3.4-0.7c1.1,0,2.2,0.1,3.3,0.4s2.1,0.7,3,1.1l-0.6,1.3C69.8,331.3,68.9,331,68,330.7z M91.1,344.8H80.8l-3.1,7.8H76
				L86,328h0.1l9.9,24.5h-1.8L91.1,344.8z M90.6,343.2L86,331.7l-4.6,11.6H90.6z M115.2,352.2c-1.4,0.4-2.7,0.6-3.9,0.6
				c-2.4,0-4.5-0.5-6.4-1.6c-1.8-1-3.3-2.5-4.3-4.2s-1.5-3.8-1.5-6c0-2.3,0.5-4.4,1.6-6.3c1.1-1.9,2.5-3.3,4.4-4.4s3.8-1.6,6-1.6
				c2.4,0,4.5,0.6,6.5,1.7l-0.6,1.5c-0.8-0.5-1.7-0.8-2.7-1.1s-2-0.4-3-0.4c-2,0-3.8,0.5-5.4,1.4s-2.9,2.2-3.8,3.8
				c-0.9,1.6-1.4,3.4-1.4,5.4c0,1.9,0.4,3.7,1.3,5.3c0.9,1.6,2.1,2.8,3.7,3.7c1.6,0.9,3.4,1.3,5.4,1.3c0.9,0,1.9-0.1,2.9-0.3
				c1-0.2,1.9-0.5,2.6-0.9v-6.5h-5.3v-1.6h6.9v9C117.7,351.4,116.6,351.9,115.2,352.2z M139.8,329v1.6h-12.9v9.3h11.6v1.6h-11.6v9.5
				h13.3v1.6h-15V329H139.8z M165.7,330.7c-1-0.3-1.9-0.4-2.8-0.4c-1.5,0-2.8,0.4-3.7,1.1c-0.9,0.8-1.4,1.7-1.4,2.9
				c0,0.8,0.2,1.6,0.7,2.1c0.5,0.6,1.1,1.1,1.9,1.5c0.8,0.4,1.8,0.8,3,1.3c1.3,0.5,2.4,1,3.3,1.5c0.9,0.5,1.6,1.2,2.2,2.1
				c0.6,0.9,0.9,2,0.9,3.4c0,1.3-0.3,2.5-0.9,3.5s-1.5,1.8-2.6,2.3c-1.1,0.6-2.4,0.8-3.8,0.8c-2.5,0-5-0.8-7.4-2.4l0.8-1.3
				c0.8,0.6,1.8,1.2,3,1.6s2.4,0.7,3.5,0.7c1,0,1.9-0.2,2.8-0.6c0.9-0.4,1.6-1,2.2-1.8c0.6-0.8,0.8-1.7,0.8-2.8c0-1-0.3-1.9-0.8-2.6
				s-1.2-1.3-2-1.7s-1.8-0.9-3-1.3c-1.3-0.5-2.4-1-3.3-1.4c-0.9-0.5-1.6-1.1-2.2-1.8c-0.6-0.8-0.9-1.7-0.9-2.8
				c0-1.1,0.3-2.1,0.8-2.9c0.6-0.9,1.3-1.5,2.4-2c1-0.5,2.1-0.7,3.4-0.7c1.1,0,2.2,0.1,3.3,0.4s2.1,0.7,3,1.1l-0.6,1.3
				C167.6,331.3,166.7,331,165.7,330.7z M190.3,329v1.6h-12.9v9.3h11.6v1.6h-11.6v9.5h13.3v1.6h-15V329H190.3z M211,352.3
				c-1.1,0.3-2.2,0.5-3.5,0.5c-2.4,0-4.4-0.5-6.3-1.6c-1.8-1.1-3.2-2.5-4.2-4.3c-1-1.8-1.5-3.8-1.5-6c0-2.3,0.5-4.3,1.6-6.2
				c1-1.9,2.5-3.3,4.3-4.4c1.8-1.1,3.8-1.6,6-1.6c2.3,0,4.5,0.6,6.4,1.8l-0.7,1.5c-1.9-1.1-3.8-1.7-5.7-1.7c-1.8,0-3.5,0.5-5.1,1.4
				c-1.6,0.9-2.8,2.2-3.7,3.8c-0.9,1.6-1.4,3.4-1.4,5.3c0,1.9,0.4,3.6,1.3,5.2c0.8,1.6,2,2.8,3.6,3.8c1.5,0.9,3.3,1.4,5.4,1.4
				c2,0,3.9-0.6,5.7-1.7l0.8,1.4C213,351.5,212.1,352,211,352.3z M233.1,352.5l-6.2-10c-0.5,0.1-1,0.1-1.8,0.1h-3.6v9.9h-1.6V329
				h5.4c1.2,0,2.4,0.2,3.6,0.7c1.1,0.5,2.1,1.2,2.8,2.2s1.1,2.2,1.1,3.7c0,1.4-0.3,2.7-1,3.9c-0.7,1.2-1.7,2-3.1,2.5l6.4,10.4H233.1
				z M229.6,339.5c0.9-1.1,1.4-2.3,1.4-3.8c0-0.9-0.2-1.8-0.7-2.6s-1.1-1.4-1.9-1.9c-0.8-0.5-1.8-0.7-2.9-0.7h-4v10.5h3.5
				C227.2,341.1,228.7,340.6,229.6,339.5z M255.4,329v1.6h-12.9v9.3h11.6v1.6h-11.6v9.5h13.3v1.6h-15V329H255.4z M275.5,329v1.6
				h-6.9v22H267v-22h-6.9V329H275.5z"/>
			<path id="amon2" class="st0" d="M101.2,222.4V151l-34.7,29l34.7-33.3l38.5,37.4V119l-51.7,8.6l-35.1,32.3l39.8-40.4
				C84.7,109.5,80,96.8,80,83c0-32.6,26.4-59,59-59s59,26.4,59,59c0,13-4,25-10.8,34.8l49,49.9c6.9-14.3,10.8-30.3,10.8-47.2
				C247,60.6,198.4,12,138.5,12S30,60.6,30,120.5C30,167.3,59.6,207.2,101.2,222.4z M138,240c-66.3,0-120-53.7-120-120S71.7,0,138,0
				s120,53.7,120,120S204.3,240,138,240z M140,78.3l-49.8,46.6l49-9.1l50.4,9.1L139.9,113L140,78.3z M142.4,187.2l32.2,30.3
				l-2.4-57.3l34.5,31.4l-34.5-34.8L142.4,187.2z"/>
		</g>
	</g>
</g>
</svg>
